<?xml version="1.0" encoding="UTF-8"?>
<svg xmlns="http://www.w3.org/2000/svg" xmlns:xlink="http://www.w3.org/1999/xlink" viewBox="0 0 294 104">
    <defs>
        <path id="a" d="m68.28 38.93c2.089 1.516 4.236 0.8647 5.101-1.974l5.976-19.56c-0.5328-0.4253-1.075-0.8575-1.632-1.262-13.86-10.06-31.59-10.88-45.89-3.651l36.44 26.45z"/>
    </defs>

    <path d="m51.78 0.09375c-28.6 0-51.78 23.18-51.78 51.78s23.18 51.78 51.78 51.78 51.78-23.18 51.78-51.78-23.18-51.78-51.78-51.78zm0.2812 31.62 9.594 7.031 9.594 7.062-3.719 11.34-3.75 11.28-11.91-0.03125-11.91-0.0625-3.656-11.34-3.594-11.34 9.656-7 9.688-6.938z" fill="#e9eaeb"/>
    <use xlink:href="#a" fill="#e04a3f"/>
    <use xlink:href="#a" fill="#ffd34e" transform="rotate(72 51.78 51.78)"/>
    <use xlink:href="#a" fill="#0dab62" transform="rotate(144 51.78 51.78)"/>
    <use xlink:href="#a" fill="#448afd" transform="rotate(216 51.78 51.78)"/>
    <use xlink:href="#a" fill="#9b479f" transform="rotate(288 51.78 51.78)"/>

    <path d="m276.8 71.06c-6.066 0-10.83-5.318-10.83-11.77 0-6.585 4.761-11.96 10.83-11.96 5.951 0 10.96 5.375 10.96 11.96 0 6.45-5.01 11.77-10.96 11.77zm16.28-26.24c0-1.421-1.152-2.572-2.553-2.572-1.421 0-2.572 1.152-2.572 2.572v0.03839 3.359c-2.265-3.263-6.393-5.951-11.15-5.951-9.253 0-16.14 7.64-16.14 16.97 0 9.311 6.892 16.89 16.14 16.89 4.761 0 8.888-2.688 11.15-6.009v3.379c0 1.421 1.152 2.572 2.572 2.572 1.401 0 2.553-1.152 2.553-2.572v-28.64-0.03839zm-82.24 26.24c-6.085 0-10.85-5.318-10.85-11.77 0-6.585 4.761-11.96 10.85-11.96 5.932 0 10.94 5.375 10.94 11.96 0 6.45-5.01 11.77-10.94 11.77zm13.71-28.81c-1.421 0-2.572 1.152-2.572 2.572 0 0.0192 0.0192 0.0192 0.0192 0.03839h-0.0192v3.359c-2.246-3.263-6.373-5.951-11.13-5.951-9.272 0-16.14 7.64-16.14 16.97 0 9.311 6.873 16.89 16.14 16.89 4.761 0 8.888-2.688 11.13-6.009v3.379c0 1.421 1.152 2.572 2.572 2.572s2.572-1.152 2.572-2.572v-28.64h-0.0192c0-0.0192 0.0192-0.0192 0.0192-0.03839 0-1.421-1.152-2.572-2.572-2.572zm-69.01-8.523c-1.459 0-2.649 1.19-2.649 2.668 0 1.459 1.19 2.649 2.649 2.649 1.478 0 2.668-1.19 2.668-2.649 0-1.478-1.19-2.668-2.668-2.668zm0 8.523c-1.459 0-2.649 1.19-2.649 2.668v0.03838 28.43 0.0192c0 1.459 1.19 2.649 2.649 2.649 1.478 0 2.668-1.19 2.668-2.649v-0.0192-28.43h-0.0191c0-0.0192 0.0191-0.0192 0.0191-0.03838 0-1.478-1.19-2.668-2.668-2.668zm90.17 13.53c-6.316-0.9982-8.14-1.805-8.14-4.127 0-2.496 3.072-4.511 7.333-4.511 3.935 0 7.007 1.766 7.756 5.202h0.0192c0.3263 1.094 1.325 1.901 2.534 1.901 1.459 0 2.668-1.19 2.668-2.668 0-0.2688-0.0576-0.5183-0.1344-0.7679-1.305-5.356-6.047-8.543-12.84-8.543-8.639 0-12.65 4.934-12.65 9.579 0 6.066 4.761 7.948 12.57 9.08 7.89 1.056 8.773 2.745 8.773 5.01 0 2.803-3.072 5.241-8.082 5.241-4.55 0-8.216-2.246-8.965-5.913-0.2304-1.229-1.305-2.169-2.611-2.169-1.478 0-2.668 1.19-2.668 2.649 0 0.192 0.0192 0.3647 0.0576 0.5375 1.344 6.124 6.834 9.848 14.19 9.848 7.698 0 13.21-4.07 13.21-10.52 0-7.314-5.874-8.696-13.02-9.829zm-67.61-8.447c4.185 0 7.506 2.188 9.33 5.682 0.4607 0.7679 1.286 1.286 2.246 1.286 1.459 0 2.649-1.171 2.649-2.611 0-0.4607-0.1344-0.8639-0.3264-1.229v-0.05758c-2.688-5.01-7.717-8.14-13.9-8.14-8.888 0-16.14 7.64-16.14 16.97 0 9.311 7.256 16.84 16.14 16.84 6.181 0 11.25-3.148 13.92-8.14v-0.05758c0.192-0.3647 0.3072-0.7679 0.3072-1.19 0-1.459-1.19-2.63-2.649-2.63-0.9407 0-1.747 0.4991-2.208 1.229h-0.0192c-1.747 3.513-5.087 5.702-9.349 5.702-5.932 0-10.83-5.241-10.83-11.75 0-6.527 4.895-11.9 10.83-11.9zm-42.62 5.759h-12.96v-16.14h12.96c5.068 0 8.696 2.38 8.696 8.063 0 5.702-3.628 8.082-8.696 8.082zm0-21.21h-18.29v41.5 0.0192c0 1.459 1.19 2.649 2.668 2.649 1.478 0 2.668-1.19 2.668-2.649 0 0-0.0191-0.0192-0.0191-0.0192h0.0191v-15.22h12.96c8.946 0 13.96-5.51 13.96-13.15 0-7.698-5.01-13.13-13.96-13.13z" fill="#4b5d5f"/>
</svg>
